                        <svg xmlns="http://www.w3.org/2000/svg" viewBox="0 0 24 24" data-supported-dps="24x24" fill="#70b5f9" width="24" height="24" focusable="false">
                            <path d="M 19 4 H 5 a 3 3 0 0 0 -3 3 v 10 a 3 3 0 0 0 3 3 h 14 a 3 3 0 0 0 3 -3 V 7 a 3 3 0 0 0 -3 -3 Z m 1 13 a 1 1 0 0 1 -0.29 0.71 L 16 14 l -2 2 l -6 -6 l -4 4 V 7 a 1 1 0 0 1 1 -1 h 14 a 1 1 0 0 1 1 1 Z m -2 -7 a 2 2 0 1 1 -2 -2 a 2 2 0 0 1 2 2 Z"></path>
                        </svg>





                        
